G04*
G04 #@! TF.GenerationSoftware,Altium Limited,Altium Designer,21.2.2 (38)*
G04*
G04 Layer_Color=32768*
%FSLAX24Y24*%
%MOIN*%
G70*
G04*
G04 #@! TF.SameCoordinates,0DBBDB5B-25B0-4067-8FFC-A2F30D48E738*
G04*
G04*
G04 #@! TF.FilePolarity,Positive*
G04*
G01*
G75*
%ADD10C,0.0039*%
%ADD23C,0.0020*%
D10*
X1181Y-984D02*
Y-591D01*
X984Y-787D02*
X1378D01*
X-1181Y-984D02*
Y-591D01*
X-1378Y-787D02*
X-984D01*
X1181Y591D02*
Y984D01*
X984Y787D02*
X1378D01*
X-1181Y591D02*
Y984D01*
X-1378Y787D02*
X-984D01*
X0Y-197D02*
Y197D01*
X-197Y0D02*
X197D01*
D23*
X659Y-1211D02*
X1703D01*
X659Y-364D02*
X1703D01*
X659Y-1211D02*
Y-364D01*
X1703Y-1211D02*
Y-364D01*
X-1703Y-1211D02*
X-659D01*
X-1703Y-364D02*
X-659D01*
X-1703Y-1211D02*
Y-364D01*
X-659Y-1211D02*
Y-364D01*
X659Y364D02*
X1703D01*
X659Y1211D02*
X1703D01*
X659Y364D02*
Y1211D01*
X1703Y364D02*
Y1211D01*
X-1703Y364D02*
X-659D01*
X-1703Y1211D02*
X-659D01*
X-1703Y364D02*
Y1211D01*
X-659Y364D02*
Y1211D01*
X-522Y-423D02*
X522D01*
X-522Y423D02*
X522D01*
X-522Y-423D02*
Y423D01*
X522Y-423D02*
Y423D01*
M02*
