M48
;Layer_Color=9474304
;FILE_FORMAT=2:4
INCH,LZ
;TYPE=PLATED
T1F00S00C0.0098
T2F00S00C0.0118
%
T01
X-001476Y-001142
X-00128
X-001083
X-000886
Y-000433
X-001083
X-00128
X-001476
Y000433
X-00128
X-001083
X-000886
X-000295Y000354
X-000098
X000098
X000295
X000886Y000433
X001083
X00128
X001476
Y001142
X00128
X001083
X000886
Y-000433
X001083
X00128
X001476
Y-001142
X00128
X001083
X000886
X000295Y-000354
X000098
X-000098
X-000295
X-000886Y001142
X-001083
X-00128
X-001476
T02
X-001634Y-000787
X-000728
X-000453Y0
X000453
X000728Y-000787
X001634
Y000787
X000728
X-000728
X-001634
M30
