G04*
G04 #@! TF.GenerationSoftware,Altium Limited,Altium Designer,21.2.2 (38)*
G04*
G04 Layer_Color=255*
%FSLAX24Y24*%
%MOIN*%
G70*
G04*
G04 #@! TF.SameCoordinates,03446FD7-6A2D-4D97-8917-571D505D005C*
G04*
G04*
G04 #@! TF.FilePolarity,Positive*
G04*
G01*
G75*
%ADD17O,0.0228X0.0118*%
%ADD18O,0.0098X0.0228*%
%ADD19O,0.0079X0.0228*%
D17*
X797Y-787D02*
D03*
X1565D02*
D03*
X-1565D02*
D03*
X-797D02*
D03*
X797Y787D02*
D03*
X1565D02*
D03*
X-1565D02*
D03*
X-797D02*
D03*
X-384Y0D02*
D03*
X384D02*
D03*
D18*
X886Y-502D02*
D03*
X1476D02*
D03*
Y-1073D02*
D03*
X886D02*
D03*
X-1476Y-502D02*
D03*
X-886D02*
D03*
Y-1073D02*
D03*
X-1476D02*
D03*
X886Y1073D02*
D03*
X1476D02*
D03*
Y502D02*
D03*
X886D02*
D03*
X-1476Y1073D02*
D03*
X-886D02*
D03*
Y502D02*
D03*
X-1476D02*
D03*
X-295Y285D02*
D03*
X295D02*
D03*
Y-285D02*
D03*
X-295D02*
D03*
D19*
X1083Y-502D02*
D03*
X1280D02*
D03*
Y-1073D02*
D03*
X1083D02*
D03*
X-1280Y-502D02*
D03*
X-1083D02*
D03*
Y-1073D02*
D03*
X-1280D02*
D03*
X1083Y1073D02*
D03*
X1280D02*
D03*
Y502D02*
D03*
X1083D02*
D03*
X-1280Y1073D02*
D03*
X-1083D02*
D03*
Y502D02*
D03*
X-1280D02*
D03*
X-98Y285D02*
D03*
X98D02*
D03*
Y-285D02*
D03*
X-98D02*
D03*
M02*
