G04*
G04 #@! TF.GenerationSoftware,Altium Limited,Altium Designer,21.2.2 (38)*
G04*
G04 Layer_Physical_Order=2*
G04 Layer_Color=16711680*
%FSLAX25Y25*%
%MOIN*%
G70*
G04*
G04 #@! TF.SameCoordinates,709667AC-14EB-4471-AD56-61C09BC5D7C4*
G04*
G04*
G04 #@! TF.FilePolarity,Positive*
G04*
G01*
G75*
%ADD11C,0.00800*%
%ADD12C,0.00984*%
D11*
X16895Y15124D02*
X16339Y13780D01*
X16929Y15157D02*
X17323Y16108D01*
X16339Y13434D02*
X16492Y12662D01*
X16929Y12008D01*
X17323Y11057D02*
X16929Y12008D01*
X13386Y11417D02*
X13122Y12402D01*
X12402Y13122D01*
X11417Y13386D01*
X7053Y24966D02*
X6496Y23622D01*
X7087Y25000D02*
X7480Y25951D01*
X6496Y23276D02*
X6650Y22504D01*
X7087Y21850D01*
X7480Y20900D02*
X7087Y21850D01*
X3543Y21260D02*
X3280Y22244D01*
X2559Y22965D01*
X1575Y23228D01*
X26738Y24966D02*
X26181Y23622D01*
X26772Y25000D02*
X27165Y25951D01*
X26181Y23276D02*
X26335Y22504D01*
X26772Y21850D01*
X27165Y20900D02*
X26772Y21850D01*
X23228Y21260D02*
X22965Y22244D01*
X22244Y22965D01*
X21260Y23228D01*
X26738Y5281D02*
X26181Y3937D01*
X26772Y5315D02*
X27165Y6265D01*
X26181Y3591D02*
X26335Y2819D01*
X26772Y2165D01*
X27165Y1215D02*
X26772Y2165D01*
X23228Y1575D02*
X22965Y2559D01*
X22244Y3280D01*
X21260Y3543D01*
X3543Y1575D02*
X3280Y2559D01*
X2559Y3280D01*
X1575Y3543D01*
X7480Y1215D02*
X7087Y2165D01*
X6496Y3591D02*
X6650Y2819D01*
X7087Y2165D01*
Y5315D02*
X7480Y6265D01*
X7053Y5281D02*
X6496Y3937D01*
X17323Y9843D02*
Y11057D01*
X13386Y9843D02*
Y11417D01*
X9843Y13386D02*
X11417D01*
X16339Y13434D02*
Y13780D01*
X7480Y19685D02*
Y20900D01*
X3543Y19685D02*
Y21260D01*
X0Y23228D02*
X1575D01*
X6496Y23276D02*
Y23622D01*
X27165Y19685D02*
Y20900D01*
X23228Y19685D02*
Y21260D01*
X19685Y23228D02*
X21260D01*
X26181Y23276D02*
Y23622D01*
X27165Y0D02*
Y1215D01*
X23228Y0D02*
Y1575D01*
X19685Y3543D02*
X21260D01*
X26181Y3591D02*
Y3937D01*
X6496Y3591D02*
Y3937D01*
X0Y3543D02*
X1575D01*
X3543Y0D02*
Y1575D01*
X7480Y0D02*
Y1215D01*
D12*
X17323Y15748D02*
Y16929D01*
X11417Y15748D02*
Y16929D01*
X13386Y15748D02*
Y16929D01*
X15354Y15748D02*
Y16929D01*
X17323Y9843D02*
Y11024D01*
X15354Y9843D02*
Y11024D01*
X13386Y9843D02*
Y11024D01*
X11417Y9843D02*
Y11024D01*
X9843Y13386D02*
X11024D01*
X17717D02*
X18898D01*
X7480Y25591D02*
Y26772D01*
X1575Y25591D02*
Y26772D01*
X3543Y25591D02*
Y26772D01*
X5512Y25591D02*
Y26772D01*
X7480Y19685D02*
Y20866D01*
X5512Y19685D02*
Y20866D01*
X3543Y19685D02*
Y20866D01*
X1575Y19685D02*
Y20866D01*
X0Y23228D02*
X1181D01*
X7874D02*
X9055D01*
X27165Y25591D02*
Y26772D01*
X21260Y25591D02*
Y26772D01*
X23228Y25591D02*
Y26772D01*
X25197Y25591D02*
Y26772D01*
X27165Y19685D02*
Y20866D01*
X25197Y19685D02*
Y20866D01*
X23228Y19685D02*
Y20866D01*
X21260Y19685D02*
Y20866D01*
X19685Y23228D02*
X20866D01*
X27559D02*
X28740D01*
X27165Y5906D02*
Y7087D01*
X21260Y5906D02*
Y7087D01*
X23228Y5906D02*
Y7087D01*
X25197Y5906D02*
Y7087D01*
X27165Y0D02*
Y1181D01*
X25197Y0D02*
Y1181D01*
X23228Y0D02*
Y1181D01*
X21260Y0D02*
Y1181D01*
X19685Y3543D02*
X20866D01*
X27559D02*
X28740D01*
X7874D02*
X9055D01*
X0D02*
X1181D01*
X1575Y0D02*
Y1181D01*
X3543Y0D02*
Y1181D01*
X5512Y0D02*
Y1181D01*
X7480Y0D02*
Y1181D01*
X5512Y5906D02*
Y7087D01*
X3543Y5906D02*
Y7087D01*
X1575Y5906D02*
Y7087D01*
X7480Y5906D02*
Y7087D01*
M02*
